# Blender v2.76 (sub 0) OBJ File: ''
# www.blender.org
mtllib 5.mtl
o object_1
v -0.127946 -3.296918 -0.671131
v 0.144957 -2.877778 -0.671131
v 0.144957 -2.877778 0.403627
v -0.127946 -3.296918 0.403627
v 0.144957 -2.877778 -0.671131
v 0.446425 -2.480275 -0.671131
v 0.446425 -2.480275 0.403627
v 0.144957 -2.877778 0.403627
v 0.614882 -2.280827 -0.671131
v 0.614882 -2.280827 0.403627
v 0.785582 -2.107129 -0.671131
v 0.785582 -2.107129 0.403627
v 0.785582 -2.107129 -0.671131
v 1.172560 -1.787266 -0.671131
v 1.172560 -1.787266 0.403627
v 0.785582 -2.107129 0.403627
v 1.172560 -1.787266 -0.671131
v 1.364302 -1.626599 -0.671131
v 1.364302 -1.626599 0.403627
v 1.172560 -1.787266 0.403627
v 1.903548 -1.105343 -0.671131
v 1.903548 -1.105344 0.403627
v 2.071990 -0.926667 -0.671131
v 2.071990 -0.926667 0.403627
v 2.236266 -0.731473 -0.671131
v 2.236266 -0.731473 0.403627
v 2.345152 -0.587609 -0.671131
v 2.345152 -0.587609 0.403627
v 2.438429 -0.436577 -0.671131
v 2.438429 -0.436578 0.403627
v 2.515837 -0.279828 -0.671131
v 2.515837 -0.279828 0.403627
v 2.577025 -0.118828 -0.671131
v 2.577025 -0.118829 0.403627
v 2.621687 0.044959 -0.671131
v 2.621687 0.044959 0.403627
v 2.649519 0.210082 -0.671131
v 2.649519 0.210082 0.403627
v 2.660216 0.375080 -0.671131
v 2.660216 0.375079 0.403627
v 2.653441 0.538486 -0.671131
v 2.653441 0.538486 0.403627
v 2.628890 0.698844 -0.671131
v 2.628890 0.698844 0.403627
v 2.586272 0.854694 -0.671131
v 2.586272 0.854694 0.403627
v 2.525237 1.004573 -0.671131
v 2.525237 1.004573 0.403627
v 2.445509 1.147029 -0.671131
v 2.445509 1.147029 0.403627
v 2.346739 1.280593 -0.671131
v 2.346739 1.280593 0.403627
v 2.228652 1.403812 -0.671131
v 2.228652 1.403812 0.403627
v 2.090895 1.515220 -0.671131
v 2.090895 1.515220 0.403627
v 1.933196 1.613361 -0.671131
v 1.933196 1.613361 0.403627
v 1.662779 1.727905 -0.671130
v 1.662779 1.727905 0.403627
v 1.520079 1.764266 -0.671130
v 1.520079 1.764266 0.403627
v 1.373915 1.785102 -0.671130
v 1.373915 1.785102 0.403627
v 1.225402 1.789222 -0.671130
v 1.225402 1.789222 0.403627
v 1.075682 1.775436 -0.671130
v 1.075682 1.775436 0.403627
v 0.925902 1.742557 -0.671130
v 0.925902 1.742557 0.403627
v 0.777190 1.689391 -0.671130
v 0.777190 1.689391 0.403627
v 0.581679 1.593479 -0.671131
v 0.581679 1.593478 0.403627
v 0.433898 1.498042 -0.671131
v 0.433898 1.498042 0.403627
v 0.325072 1.404025 -0.671131
v 0.325072 1.404025 0.403627
v 0.246428 1.312381 -0.671131
v 0.246428 1.312381 0.403627
v 0.058028 0.988506 -0.671131
v 0.058028 0.988506 0.403627
v 0.058028 0.988506 -0.671131
v -0.045457 1.204826 -0.671131
v -0.045457 1.204826 0.403627
v 0.058028 0.988506 0.403627
v -0.198579 1.405307 -0.671131
v -0.198579 1.405307 0.403627
v -0.394441 1.580856 -0.671131
v -0.394441 1.580856 0.403627
v -0.626130 1.722373 -0.671130
v -0.626130 1.722373 0.403627
v -0.886766 1.820762 -0.671130
v -0.886766 1.820762 0.403627
v -1.025773 1.850944 -0.671130
v -1.025773 1.850944 0.403627
v -1.169420 1.866935 -0.671130
v -1.169420 1.866935 0.403627
v -1.316865 1.867595 -0.671130
v -1.316865 1.867595 0.403627
v -1.467225 1.851787 -0.671130
v -1.467225 1.851787 0.403627
v -1.619661 1.818378 -0.671130
v -1.619661 1.818378 0.403627
v -1.773271 1.766231 -0.671130
v -1.773271 1.766231 0.403627
v -1.986696 1.649249 -0.671131
v -1.986696 1.649249 0.403627
v -2.175539 1.483398 -0.671131
v -2.175539 1.483398 0.403627
v -2.334901 1.276008 -0.671131
v -2.334901 1.276008 0.403627
v -2.459886 1.034419 -0.671131
v -2.459886 1.034419 0.403627
v -2.545579 0.765968 -0.671131
v -2.545579 0.765968 0.403627
v -2.587068 0.477989 -0.671131
v -2.587068 0.477988 0.403627
v -2.579439 0.177818 -0.671131
v -2.579439 0.177818 0.403627
v -2.517793 -0.127209 -0.671131
v -2.517793 -0.127209 0.403627
v -2.395662 -0.436749 -0.671131
v -2.395662 -0.436749 0.403627
v -2.232286 -0.712540 -0.671131
v -2.232286 -0.712540 0.403627
v -2.041399 -0.957814 -0.671131
v -2.041399 -0.957814 0.403627
v -1.836686 -1.175809 -0.671131
v -1.836686 -1.175809 0.403627
v -0.915605 -2.011678 -0.671131
v -0.915605 -2.011678 0.403627
v -0.587861 -2.379269 -0.671131
v -0.587861 -2.379269 0.403627
v -0.418306 -2.605103 -0.671131
v -0.418306 -2.605103 0.403627
v -0.294420 -2.813786 -0.671131
v -0.294420 -2.813786 0.403627
v -0.202287 -3.034623 -0.671131
v -0.202287 -3.034623 0.403627
v -0.127946 -3.296918 -0.671131
v -0.127946 -3.296918 0.403627
v 0.144957 -2.877778 -0.671131
v -0.127946 -3.296918 -0.671131
v -0.202287 -3.034623 -0.671131
v -0.294420 -2.813786 -0.671131
v -0.418306 -2.605103 -0.671131
v -2.041399 -0.957814 -0.671131
v -2.232286 -0.712540 -0.671131
v 0.058028 0.988506 -0.671131
v -1.836686 -1.175809 -0.671131
v -0.915605 -2.011678 -0.671131
v -0.587861 -2.379269 -0.671131
v 0.446425 -2.480275 -0.671131
v 0.614882 -2.280827 -0.671131
v 0.785582 -2.107129 -0.671131
v 1.172560 -1.787266 -0.671131
v 1.364302 -1.626599 -0.671131
v 1.903548 -1.105343 -0.671131
v -2.395662 -0.436749 -0.671131
v -2.579439 0.177818 -0.671131
v -2.587068 0.477989 -0.671131
v -2.545579 0.765968 -0.671131
v -2.517793 -0.127209 -0.671131
v -2.459886 1.034419 -0.671131
v -2.334901 1.276008 -0.671131
v -1.025773 1.850944 -0.671130
v -2.175539 1.483398 -0.671131
v -1.619661 1.818378 -0.671130
v -1.169420 1.866935 -0.671130
v -0.886766 1.820762 -0.671130
v -1.316865 1.867595 -0.671130
v -1.773271 1.766231 -0.671130
v -1.986696 1.649249 -0.671131
v -1.467225 1.851787 -0.671130
v -0.626130 1.722373 -0.671130
v -0.394441 1.580856 -0.671131
v 2.071990 -0.926667 -0.671131
v 2.236266 -0.731473 -0.671131
v 2.345152 -0.587609 -0.671131
v 2.438429 -0.436577 -0.671131
v 2.577025 -0.118828 -0.671131
v 2.515837 -0.279828 -0.671131
v 2.621687 0.044959 -0.671131
v 2.649519 0.210082 -0.671131
v 2.653441 0.538486 -0.671131
v 2.660216 0.375080 -0.671131
v 2.090895 1.515220 -0.671131
v 2.628890 0.698844 -0.671131
v 2.346739 1.280593 -0.671131
v 2.525237 1.004573 -0.671131
v 2.586272 0.854694 -0.671131
v 2.445509 1.147029 -0.671131
v 2.228652 1.403812 -0.671131
v 0.246428 1.312381 -0.671131
v 0.325072 1.404025 -0.671131
v 0.433898 1.498042 -0.671131
v 0.581679 1.593479 -0.671131
v 0.777190 1.689391 -0.671130
v -0.198579 1.405307 -0.671131
v -0.045457 1.204826 -0.671131
v 1.662779 1.727905 -0.671130
v 1.933196 1.613361 -0.671131
v 1.520079 1.764266 -0.671130
v 1.225402 1.789222 -0.671130
v 0.925902 1.742557 -0.671130
v 1.075682 1.775436 -0.671130
v 1.373915 1.785102 -0.671130
v 0.144957 -2.877778 0.403627
v -0.202287 -3.034623 0.403627
v -0.127946 -3.296918 0.403627
v -0.418306 -2.605103 0.403627
v -0.294420 -2.813786 0.403627
v -2.041399 -0.957814 0.403627
v 0.058028 0.988506 0.403627
v -2.232286 -0.712540 0.403627
v -1.836686 -1.175809 0.403627
v -0.915605 -2.011678 0.403627
v 0.446425 -2.480275 0.403627
v -0.587861 -2.379269 0.403627
v 0.614882 -2.280827 0.403627
v 0.785582 -2.107129 0.403627
v 1.172560 -1.787266 0.403627
v 1.364302 -1.626599 0.403627
v 1.903548 -1.105344 0.403627
v -2.395662 -0.436749 0.403627
v -2.579439 0.177818 0.403627
v -2.587068 0.477988 0.403627
v -2.545579 0.765968 0.403627
v -2.517793 -0.127209 0.403627
v -2.459886 1.034419 0.403627
v -1.025773 1.850944 0.403627
v -2.334901 1.276008 0.403627
v -1.619661 1.818378 0.403627
v -2.175539 1.483398 0.403627
v -1.169420 1.866935 0.403627
v -0.886766 1.820762 0.403627
v -1.316865 1.867595 0.403627
v -1.773271 1.766231 0.403627
v -1.986696 1.649249 0.403627
v -1.467225 1.851787 0.403627
v -0.626130 1.722373 0.403627
v -0.394441 1.580856 0.403627
v 2.071990 -0.926667 0.403627
v 2.236266 -0.731473 0.403627
v 2.345152 -0.587609 0.403627
v 2.438429 -0.436578 0.403627
v 2.577025 -0.118829 0.403627
v 2.515837 -0.279828 0.403627
v 2.621687 0.044959 0.403627
v 2.649519 0.210082 0.403627
v 2.660216 0.375079 0.403627
v 2.653441 0.538486 0.403627
v 2.090895 1.515220 0.403627
v 2.628890 0.698844 0.403627
v 2.346739 1.280593 0.403627
v 2.586272 0.854694 0.403627
v 2.525237 1.004573 0.403627
v 2.445509 1.147029 0.403627
v 2.228652 1.403812 0.403627
v 0.246428 1.312381 0.403627
v 0.433898 1.498042 0.403627
v 0.325072 1.404025 0.403627
v 0.777190 1.689391 0.403627
v 0.581679 1.593478 0.403627
v -0.198579 1.405307 0.403627
v -0.045457 1.204826 0.403627
v 1.662779 1.727905 0.403627
v 1.933196 1.613361 0.403627
v 1.520079 1.764266 0.403627
v 1.225402 1.789222 0.403627
v 1.075682 1.775436 0.403627
v 0.925902 1.742557 0.403627
v 1.373915 1.785102 0.403627
vt 0.000000 0.000000
vt 0.259143 0.000000
vt 0.259143 0.550117
vt 0.000000 0.550117
vt 0.280994 0.000000
vt 0.280994 0.550117
vt 0.291920 0.000000
vt 0.291920 0.550117
vt 0.302846 0.000000
vt 0.302846 0.550117
vt 0.562975 0.000000
vt 0.562975 0.550117
vt 0.573901 0.000000
vt 0.573901 0.550117
vt 0.606677 0.000000
vt 0.606677 0.550117
vt 0.628529 0.000000
vt 0.628529 0.550117
vt 0.650380 0.000000
vt 0.650380 0.550117
vt 0.653111 0.000000
vt 0.653111 0.550117
vt 0.655843 0.000000
vt 0.655843 0.550117
vt 0.658574 0.000000
vt 0.658574 0.550117
vt 0.661306 0.000000
vt 0.661306 0.550117
vt 0.664037 0.000000
vt 0.664037 0.550117
vt 0.666768 0.000000
vt 0.666768 0.550117
vt 0.669500 0.000000
vt 0.669500 0.550117
vt 0.672231 0.000000
vt 0.672231 0.550117
vt 0.674963 0.000000
vt 0.674963 0.550117
vt 0.677694 0.000000
vt 0.677694 0.550117
vt 0.680425 0.000000
vt 0.680425 0.550117
vt 0.683157 0.000000
vt 0.683157 0.550117
vt 0.685888 0.000000
vt 0.685888 0.550117
vt 0.688620 0.000000
vt 0.688620 0.550117
vt 0.691351 0.000000
vt 0.691351 0.550117
vt 0.694082 0.000000
vt 0.694082 0.550117
vt 0.705008 0.000000
vt 0.705008 0.550117
vt 0.710471 0.000000
vt 0.710471 0.550117
vt 0.715934 0.000000
vt 0.715934 0.550117
vt 0.721397 0.000000
vt 0.721397 0.550117
vt 0.726859 0.000000
vt 0.726859 0.550117
vt 0.732322 0.000000
vt 0.732322 0.550117
vt 0.737785 0.000000
vt 0.737785 0.550117
vt 0.743248 0.000000
vt 0.743248 0.550117
vt 0.748711 0.000000
vt 0.748711 0.550117
vt 0.754173 0.000000
vt 0.754173 0.550117
vt 0.759636 0.000000
vt 0.759636 0.550117
vt 0.781487 0.000000
vt 0.781487 0.550117
vt 0.786950 0.000000
vt 0.786950 0.550117
vt 0.792413 0.000000
vt 0.792413 0.550117
vt 0.797876 0.000000
vt 0.797876 0.550117
vt 0.803339 0.000000
vt 0.803339 0.550117
vt 0.808802 0.000000
vt 0.808802 0.550117
vt 0.811533 0.000000
vt 0.811533 0.550117
vt 0.814264 0.000000
vt 0.814264 0.550117
vt 0.816996 0.000000
vt 0.816996 0.550117
vt 0.819727 0.000000
vt 0.819727 0.550117
vt 0.822459 0.000000
vt 0.822459 0.550117
vt 0.825190 0.000000
vt 0.825190 0.550117
vt 0.830653 0.000000
vt 0.830653 0.550117
vt 0.836116 0.000000
vt 0.836116 0.550117
vt 0.841578 0.000000
vt 0.841578 0.550117
vt 0.847041 0.000000
vt 0.847041 0.550117
vt 0.852504 0.000000
vt 0.852504 0.550117
vt 0.857967 0.000000
vt 0.857967 0.550117
vt 0.863430 0.000000
vt 0.863430 0.550117
vt 0.868892 0.000000
vt 0.868892 0.550117
vt 0.879818 0.000000
vt 0.879818 0.550117
vt 0.890744 0.000000
vt 0.890744 0.550117
vt 0.901669 0.000000
vt 0.901669 0.550117
vt 0.912595 0.000000
vt 0.912595 0.550117
vt 0.945372 0.000000
vt 0.945372 0.550117
vt 0.956298 0.000000
vt 0.956298 0.550117
vt 0.967223 0.000000
vt 0.967223 0.550117
vt 0.978149 0.000000
vt 0.978149 0.550117
vt 0.989074 0.000000
vt 0.989074 0.550117
vt 1.000000 0.000000
vt 1.000000 0.550117
vt 0.286563 0.955477
vt 0.295383 1.000000
vt 0.280631 0.989759
vt 0.267098 0.983261
vt 0.252924 0.979767
vt 0.116733 0.998565
vt 0.098367 0.997713
vt 0.107118 0.731999
vt 0.134376 0.996802
vt 0.207154 0.980255
vt 0.236247 0.978537
vt 0.279805 0.910187
vt 0.277062 0.886227
vt 0.275576 0.863635
vt 0.275576 0.816811
vt 0.275476 0.793482
vt 0.272034 0.723746
vt 0.079648 0.993070
vt 0.044722 0.969765
vt 0.030758 0.952477
vt 0.019198 0.932384
vt 0.060943 0.983458
vt 0.010193 0.910273
vt 0.003892 0.886934
vt 0.027001 0.758664
vt 0.000445 0.863155
vt 0.006117 0.803291
vt 0.020862 0.768041
vt 0.033612 0.750465
vt 0.015279 0.778600
vt 0.002708 0.817433
vt 0.000000 0.839725
vt 0.010336 0.790349
vt 0.047911 0.737575
vt 0.063086 0.729329
vt 0.270237 0.701020
vt 0.267530 0.677613
vt 0.265076 0.661238
vt 0.261707 0.645558
vt 0.252448 0.616716
vt 0.257480 0.630681
vt 0.246667 0.603773
vt 0.240192 0.591961
vt 0.225375 0.572166
vt 0.233076 0.581389
vt 0.159682 0.554568
vt 0.217144 0.564402
vt 0.180009 0.550118
vt 0.199309 0.553687
vt 0.208437 0.558206
vt 0.189815 0.550955
vt 0.169947 0.551286
vt 0.099456 0.699212
vt 0.098242 0.688113
vt 0.098057 0.674704
vt 0.099274 0.658410
vt 0.102268 0.638656
vt 0.078461 0.725680
vt 0.093363 0.726585
vt 0.133867 0.572707
vt 0.149271 0.560074
vt 0.126835 0.580804
vt 0.114600 0.600505
vt 0.105446 0.624807
vt 0.109589 0.612086
vt 0.120381 0.590074
vt 0.286563 0.594641
vt 0.280631 0.560359
vt 0.295383 0.550118
vt 0.252924 0.570351
vt 0.267098 0.566857
vt 0.116733 0.551553
vt 0.107118 0.818119
vt 0.098367 0.552405
vt 0.134376 0.553316
vt 0.207154 0.569863
vt 0.279805 0.639931
vt 0.236247 0.571581
vt 0.277062 0.663891
vt 0.275576 0.686483
vt 0.275576 0.733307
vt 0.275476 0.756637
vt 0.272034 0.826372
vt 0.079648 0.557048
vt 0.044722 0.580353
vt 0.030758 0.597641
vt 0.019198 0.617734
vt 0.060943 0.566661
vt 0.010193 0.639845
vt 0.027001 0.791454
vt 0.003892 0.663184
vt 0.006117 0.746827
vt 0.000445 0.686963
vt 0.020862 0.782077
vt 0.033612 0.799653
vt 0.015279 0.771518
vt 0.002708 0.732686
vt 0.000000 0.710393
vt 0.010336 0.759769
vt 0.047911 0.812543
vt 0.063086 0.820789
vt 0.270237 0.849098
vt 0.267530 0.872505
vt 0.265076 0.888880
vt 0.261707 0.904560
vt 0.252448 0.933402
vt 0.257480 0.919437
vt 0.246667 0.946345
vt 0.240192 0.958158
vt 0.233076 0.968729
vt 0.225375 0.977952
vt 0.159682 0.995550
vt 0.217144 0.985716
vt 0.180009 1.000000
vt 0.208437 0.991912
vt 0.199309 0.996431
vt 0.189815 0.999163
vt 0.169947 0.998832
vt 0.099456 0.850906
vt 0.098057 0.875414
vt 0.098242 0.862005
vt 0.102268 0.911462
vt 0.099274 0.891708
vt 0.078461 0.824438
vt 0.093363 0.823533
vt 0.133867 0.977411
vt 0.149271 0.990044
vt 0.126835 0.969314
vt 0.114600 0.949613
vt 0.109589 0.938032
vt 0.105446 0.925311
vt 0.120381 0.960044
vn 0.838000 -0.545600 0.000000
vn 0.804800 -0.593500 -0.000000
vn 0.780200 -0.625500 0.000000
vn 0.743500 -0.668800 -0.000000
vn 0.673200 -0.739400 0.000000
vn 0.637100 -0.770800 -0.000000
vn 0.610500 -0.792000 0.000000
vn 0.668700 -0.743500 0.000000
vn 0.683100 -0.730300 -0.000000
vn 0.755000 -0.655700 -0.000000
vn 0.768000 -0.640400 0.000000
vn 0.825200 -0.564800 -0.000000
vn 0.874700 -0.484700 -0.000000
vn 0.916700 -0.399500 -0.000000
vn 0.950900 -0.309500 -0.000000
vn 0.976600 -0.214900 -0.000000
vn 0.993300 -0.115900 -0.000000
vn 0.999900 -0.012100 -0.000000
vn 0.995400 0.095900 0.000000
vn 0.978300 0.207200 -0.000000
vn 0.947300 0.320400 -0.000000
vn 0.901400 0.433000 0.000000
vn 0.840000 0.542600 0.000000
vn 0.764800 0.644300 -0.000000
vn 0.676800 0.736200 0.000000
vn 0.579700 0.814800 0.000000
vn 0.476800 0.879000 0.000000
vn 0.297000 0.954900 0.000000
vn 0.195300 0.980800 0.000000
vn 0.195300 0.980700 0.000000
vn 0.085500 0.996300 0.000000
vn -0.031000 0.999500 -0.000000
vn -0.152400 0.988300 -0.000000
vn -0.275600 0.961300 -0.000000
vn -0.395800 0.918300 0.000000
vn -0.490700 0.871300 0.000000
vn -0.599100 0.800700 -0.000000
vn -0.709800 0.704400 0.000000
vn -0.804800 0.593500 0.000000
vn -0.804600 0.593900 0.000000
vn 0.945200 0.326400 -0.000000
vn 0.851100 0.524900 0.000000
vn 0.733500 0.679700 0.000000
vn 0.597200 0.802100 -0.000000
vn 0.440800 0.897600 -0.000000
vn 0.261100 0.965300 0.000000
vn 0.162300 0.986700 0.000000
vn 0.058100 0.998300 -0.000000
vn -0.049800 0.998800 -0.000000
vn -0.159200 0.987200 -0.000000
vn -0.267900 0.963500 0.000000
vn -0.373100 0.927800 -0.000000
vn -0.576900 0.816800 0.000000
vn -0.731800 0.681500 0.000000
vn -0.844800 0.535100 0.000000
vn -0.923700 0.383200 0.000000
vn -0.974500 0.224600 -0.000000
vn -0.998200 0.060000 0.000000
vn -0.993900 -0.110600 0.000000
vn -0.958900 -0.283700 -0.000000
vn -0.895700 -0.444700 -0.000000
vn -0.823100 -0.568000 -0.000000
vn -0.756000 -0.654500 -0.000000
vn -0.704300 -0.709900 -0.000000
vn -0.711000 -0.703200 -0.000000
vn -0.778200 -0.628000 -0.000000
vn -0.826900 -0.562300 -0.000000
vn -0.893100 -0.449800 0.000000
vn -0.946200 -0.323500 -0.000000
vn -0.972500 -0.232800 0.000000
vn -0.000000 0.000000 -1.000000
vn 0.000000 -0.000000 1.000000
usemtl None
s 1
f 1/1/1 2/2/1 3/3/1 4/4/1
f 5/2/2 6/5/3 7/6/3 8/3/2
f 6/5/3 9/7/4 10/8/4 7/6/3
f 9/7/4 11/9/5 12/10/5 10/8/4
f 13/9/6 14/11/6 15/12/6 16/10/6
f 17/11/7 18/13/8 19/14/8 20/12/7
f 18/13/8 21/15/9 22/16/9 19/14/8
f 21/15/9 23/17/10 24/18/10 22/16/9
f 23/17/10 25/19/11 26/20/11 24/18/10
f 25/19/11 27/21/12 28/22/12 26/20/11
f 27/21/12 29/23/13 30/24/13 28/22/12
f 29/23/13 31/25/14 32/26/14 30/24/13
f 31/25/14 33/27/15 34/28/15 32/26/14
f 33/27/15 35/29/16 36/30/16 34/28/15
f 35/29/16 37/31/17 38/32/17 36/30/16
f 37/31/17 39/33/18 40/34/18 38/32/17
f 39/33/18 41/35/19 42/36/19 40/34/18
f 41/35/19 43/37/20 44/38/20 42/36/19
f 43/37/20 45/39/21 46/40/21 44/38/20
f 45/39/21 47/41/22 48/42/22 46/40/21
f 47/41/22 49/43/23 50/44/23 48/42/22
f 49/43/23 51/45/24 52/46/24 50/44/23
f 51/45/24 53/47/25 54/48/25 52/46/24
f 53/47/25 55/49/26 56/50/26 54/48/25
f 55/49/26 57/51/27 58/52/27 56/50/26
f 57/51/27 59/53/28 60/54/28 58/52/27
f 59/53/28 61/55/29 62/56/30 60/54/28
f 61/55/29 63/57/31 64/58/31 62/56/30
f 63/57/31 65/59/32 66/60/32 64/58/31
f 65/59/32 67/61/33 68/62/33 66/60/32
f 67/61/33 69/63/34 70/64/34 68/62/33
f 69/63/34 71/65/35 72/66/35 70/64/34
f 71/65/35 73/67/36 74/68/36 72/66/35
f 73/67/36 75/69/37 76/70/37 74/68/36
f 75/69/37 77/71/38 78/72/38 76/70/37
f 77/71/38 79/73/39 80/74/39 78/72/38
f 79/73/39 81/75/40 82/76/40 80/74/39
f 83/75/41 84/77/42 85/78/42 86/76/41
f 84/77/42 87/79/43 88/80/43 85/78/42
f 87/79/43 89/81/44 90/82/44 88/80/43
f 89/81/44 91/83/45 92/84/45 90/82/44
f 91/83/45 93/85/46 94/86/46 92/84/45
f 93/85/46 95/87/47 96/88/47 94/86/46
f 95/87/47 97/89/48 98/90/48 96/88/47
f 97/89/48 99/91/49 100/92/49 98/90/48
f 99/91/49 101/93/50 102/94/50 100/92/49
f 101/93/50 103/95/51 104/96/51 102/94/50
f 103/95/51 105/97/52 106/98/52 104/96/51
f 105/97/52 107/99/53 108/100/53 106/98/52
f 107/99/53 109/101/54 110/102/54 108/100/53
f 109/101/54 111/103/55 112/104/55 110/102/54
f 111/103/55 113/105/56 114/106/56 112/104/55
f 113/105/56 115/107/57 116/108/57 114/106/56
f 115/107/57 117/109/58 118/110/58 116/108/57
f 117/109/58 119/111/59 120/112/59 118/110/58
f 119/111/59 121/113/60 122/114/60 120/112/59
f 121/113/60 123/115/61 124/116/61 122/114/60
f 123/115/61 125/117/62 126/118/62 124/116/61
f 125/117/62 127/119/63 128/120/63 126/118/62
f 127/119/63 129/121/64 130/122/64 128/120/63
f 129/121/64 131/123/65 132/124/65 130/122/64
f 131/123/65 133/125/66 134/126/66 132/124/65
f 133/125/66 135/127/67 136/128/67 134/126/66
f 135/127/67 137/129/68 138/130/68 136/128/67
f 137/129/68 139/131/69 140/132/69 138/130/68
f 139/131/69 141/133/70 142/134/70 140/132/69
f 143/135/71 144/136/71 145/137/71
f 143/135/71 146/138/71 147/139/71
f 146/138/71 143/135/71 145/137/71
f 148/140/71 149/141/71 150/142/71
f 151/143/71 148/140/71 150/142/71
f 152/144/71 151/143/71 150/142/71
f 147/139/71 153/145/71 154/146/71
f 155/147/71 152/144/71 156/148/71
f 153/145/71 155/147/71 154/146/71
f 157/149/71 156/148/71 152/144/71
f 150/142/71 157/149/71 152/144/71
f 157/149/71 150/142/71 158/150/71
f 159/151/71 158/150/71 150/142/71
f 155/147/71 153/145/71 152/144/71
f 143/135/71 147/139/71 154/146/71
f 160/152/71 150/142/71 149/141/71
f 161/153/71 162/154/71 150/142/71
f 162/154/71 163/155/71 150/142/71
f 150/142/71 164/156/71 161/153/71
f 165/157/71 166/158/71 167/159/71
f 166/158/71 168/160/71 169/161/71
f 150/142/71 163/155/71 165/157/71
f 164/156/71 150/142/71 160/152/71
f 167/159/71 166/158/71 170/162/71
f 165/157/71 167/159/71 171/163/71
f 166/158/71 172/164/71 170/162/71
f 173/165/71 168/160/71 174/166/71
f 168/160/71 173/165/71 169/161/71
f 169/161/71 175/167/71 166/158/71
f 166/158/71 175/167/71 172/164/71
f 176/168/71 165/157/71 171/163/71
f 165/157/71 176/168/71 177/169/71
f 177/169/71 150/142/71 165/157/71
f 178/170/71 150/142/71 179/171/71
f 180/172/71 179/171/71 150/142/71
f 150/142/71 181/173/71 180/172/71
f 182/174/71 183/175/71 150/142/71
f 150/142/71 184/176/71 182/174/71
f 150/142/71 183/175/71 181/173/71
f 150/142/71 185/177/71 184/176/71
f 150/142/71 186/178/71 187/179/71
f 150/142/71 188/180/71 186/178/71
f 188/180/71 189/181/71 186/178/71
f 190/182/71 191/183/71 192/184/71
f 191/183/71 190/182/71 193/185/71
f 194/186/71 192/184/71 189/181/71
f 185/177/71 150/142/71 187/179/71
f 194/186/71 190/182/71 192/184/71
f 195/187/71 196/188/71 197/189/71
f 150/142/71 198/190/71 199/191/71
f 198/190/71 150/142/71 195/187/71
f 198/190/71 195/187/71 197/189/71
f 177/169/71 200/192/71 150/142/71
f 200/192/71 201/193/71 150/142/71
f 150/142/71 199/191/71 202/194/71
f 203/195/71 150/142/71 202/194/71
f 202/194/71 199/191/71 204/196/71
f 205/197/71 206/198/71 207/199/71
f 206/198/71 205/197/71 199/191/71
f 205/197/71 208/200/71 199/191/71
f 199/191/71 208/200/71 204/196/71
f 150/142/71 203/195/71 188/180/71
f 189/181/71 188/180/71 194/186/71
f 150/142/71 178/170/71 159/151/71
f 209/201/72 210/202/72 211/203/72
f 209/201/72 212/204/72 213/205/72
f 213/205/72 210/202/72 209/201/72
f 214/206/72 215/207/72 216/208/72
f 217/209/72 215/207/72 214/206/72
f 218/210/72 215/207/72 217/209/72
f 212/204/72 219/211/72 220/212/72
f 221/213/72 222/214/72 218/210/72
f 220/212/72 219/211/72 221/213/72
f 223/215/72 218/210/72 222/214/72
f 215/207/72 218/210/72 223/215/72
f 223/215/72 224/216/72 215/207/72
f 225/217/72 215/207/72 224/216/72
f 221/213/72 218/210/72 220/212/72
f 209/201/72 219/211/72 212/204/72
f 226/218/72 216/208/72 215/207/72
f 227/219/72 215/207/72 228/220/72
f 228/220/72 215/207/72 229/221/72
f 215/207/72 227/219/72 230/222/72
f 231/223/72 232/224/72 233/225/72
f 233/225/72 234/226/72 235/227/72
f 215/207/72 231/223/72 229/221/72
f 230/222/72 226/218/72 215/207/72
f 232/224/72 236/228/72 233/225/72
f 231/223/72 237/229/72 232/224/72
f 233/225/72 236/228/72 238/230/72
f 239/231/72 240/232/72 235/227/72
f 235/227/72 234/226/72 239/231/72
f 234/226/72 233/225/72 241/233/72
f 233/225/72 238/230/72 241/233/72
f 242/234/72 237/229/72 231/223/72
f 231/223/72 243/235/72 242/234/72
f 243/235/72 231/223/72 215/207/72
f 244/236/72 245/237/72 215/207/72
f 246/238/72 215/207/72 245/237/72
f 215/207/72 246/238/72 247/239/72
f 248/240/72 215/207/72 249/241/72
f 215/207/72 248/240/72 250/242/72
f 215/207/72 247/239/72 249/241/72
f 215/207/72 250/242/72 251/243/72
f 215/207/72 252/244/72 253/245/72
f 215/207/72 253/245/72 254/246/72
f 254/246/72 253/245/72 255/247/72
f 256/248/72 257/249/72 258/250/72
f 258/250/72 259/251/72 256/248/72
f 260/252/72 255/247/72 257/249/72
f 251/243/72 252/244/72 215/207/72
f 260/252/72 257/249/72 256/248/72
f 261/253/72 262/254/72 263/255/72
f 215/207/72 264/256/72 265/257/72
f 265/257/72 261/253/72 215/207/72
f 265/257/72 262/254/72 261/253/72
f 243/235/72 215/207/72 266/258/72
f 266/258/72 215/207/72 267/259/72
f 215/207/72 268/260/72 264/256/72
f 269/261/72 268/260/72 215/207/72
f 268/260/72 270/262/72 264/256/72
f 271/263/72 272/264/72 273/265/72
f 273/265/72 264/256/72 271/263/72
f 271/263/72 264/256/72 274/266/72
f 264/256/72 270/262/72 274/266/72
f 215/207/72 254/246/72 269/261/72
f 255/247/72 260/252/72 254/246/72
f 215/207/72 225/217/72 244/236/72
